HIERARCHY
ROOT Hips
{
	OFFSET 0.000000 103.266502 0.000000
	CHANNELS 6 Xposition Yposition Zposition Xrotation Yrotation Zrotation 
	JOINT Spine
	{
		OFFSET -0.002400 12.777504 0.315300
		CHANNELS 3 Xrotation Yrotation Zrotation
		JOINT Spine1
		{
			OFFSET -0.002067 5.816869 0.032633
			CHANNELS 3 Xrotation Yrotation Zrotation
			JOINT Spine1_split
			{
				OFFSET -0.002067 5.816869 0.032633
				CHANNELS 3 Xrotation Yrotation Zrotation
				JOINT Spine2
				{
					OFFSET -0.002067 5.816869 0.032633
					CHANNELS 3 Xrotation Yrotation Zrotation
					JOINT Neck
					{
						OFFSET -0.003700 21.199493 -0.826900
						CHANNELS 3 Xrotation Yrotation Zrotation
						JOINT Head
						{
							OFFSET 0.000000 20.442200 4.834800
							CHANNELS 3 Xrotation Yrotation Zrotation
							JOINT HeadTop_End
							{
								OFFSET 0.000000 34.668396 4.968400
								CHANNELS 3 Xrotation Yrotation Zrotation
								End Site
								{
									OFFSET 0.000000 0.000000 0.000000
								}
							}
						}
					}
					JOINT LeftShoulder
					{
						OFFSET 3.288150 8.794197 -1.372250
						CHANNELS 3 Xrotation Yrotation Zrotation
						JOINT LeftShoulder_split
						{
							OFFSET 3.288150 8.794197 -1.372250
							CHANNELS 3 Xrotation Yrotation Zrotation
							JOINT LeftArm
							{
								OFFSET 11.953299 -2.279007 -0.146200
								CHANNELS 3 Xrotation Yrotation Zrotation
								JOINT LeftForeArm
								{
									OFFSET 18.448900 0.000000 0.000000
									CHANNELS 3 Xrotation Yrotation Zrotation
									JOINT LeftHand
									{
										OFFSET 29.527798 0.000000 0.000000
										CHANNELS 3 Xrotation Yrotation Zrotation
										JOINT LeftHandThumb1
										{
											OFFSET 10.739754 -2.369614 9.225399
											CHANNELS 3 Xrotation Yrotation Zrotation
											JOINT LeftHandThumb2
											{
												OFFSET 4.926170 -2.844131 2.844125
												CHANNELS 3 Xrotation Yrotation Zrotation
												JOINT LeftHandThumb3
												{
													OFFSET 4.614891 -2.664413 2.664409
													CHANNELS 3 Xrotation Yrotation Zrotation
													JOINT LeftHandThumb4
													{
														OFFSET 4.432465 -2.559082 2.559083
														CHANNELS 3 Xrotation Yrotation Zrotation
														End Site
														{
															OFFSET 0.000000 0.000000 0.000000
														}
													}
												}
											}
										}
										JOINT LeftHandIndex1
										{
											OFFSET 26.467674 0.187653 6.405298
											CHANNELS 3 Xrotation Yrotation Zrotation
											JOINT LeftHandIndex2
											{
												OFFSET 8.792900 0.000000 0.000000
												CHANNELS 3 Xrotation Yrotation Zrotation
												JOINT LeftHandIndex3
												{
													OFFSET 10.075203 0.000000 0.000000
													CHANNELS 3 Xrotation Yrotation Zrotation
													End Site
													{
														OFFSET 0.000000 0.000000 0.000000
													}
												}
											}
										}
										JOINT LeftHandMiddle1
										{
											OFFSET 25.764404 0.000000 0.000000
											CHANNELS 3 Xrotation Yrotation Zrotation
											JOINT LeftHandMiddle2
											{
												OFFSET 9.393974 0.000000 0.000000
												CHANNELS 3 Xrotation Yrotation Zrotation
												JOINT LeftHandMiddle3
												{
													OFFSET 10.771950 0.000000 0.000000
													CHANNELS 3 Xrotation Yrotation Zrotation
													End Site
													{
														OFFSET 0.000000 0.000000 0.000000
													}
												}
											}
										}
										JOINT LeftHandRing1
										{
											OFFSET 24.660927 0.144547 -6.225808
											CHANNELS 3 Xrotation Yrotation Zrotation
											JOINT LeftHandRing2
											{
												OFFSET 9.393799 0.000000 0.000000
												CHANNELS 3 Xrotation Yrotation Zrotation
												JOINT LeftHandRing3
												{
													OFFSET 9.928497 0.000000 0.000000
													CHANNELS 3 Xrotation Yrotation Zrotation
													End Site
													{
														OFFSET 0.000000 0.000000 0.000000
													}
												}
											}
										}
										JOINT LeftHandPinky1
										{
											OFFSET 23.655350 0.125290 -12.815412
											CHANNELS 3 Xrotation Yrotation Zrotation
											JOINT LeftHandPinky2
											{
												OFFSET 8.425102 0.000000 0.000000
												CHANNELS 3 Xrotation Yrotation Zrotation
												JOINT LeftHandPinky3
												{
													OFFSET 8.147003 0.000000 0.000000
													CHANNELS 3 Xrotation Yrotation Zrotation
													End Site
													{
														OFFSET 0.000000 0.000000 0.000000
													}
												}
											}
										}
									}
								}
							}
						}
					}
					JOINT RightShoulder
					{
						OFFSET -3.249400 8.794197 -1.372250
						CHANNELS 3 Xrotation Yrotation Zrotation
						JOINT RightShoulder_split
						{
							OFFSET -3.249400 8.794197 -1.372250
							CHANNELS 3 Xrotation Yrotation Zrotation
							JOINT RightArm
							{
								OFFSET -11.953299 -2.279007 -0.146200
								CHANNELS 3 Xrotation Yrotation Zrotation
								JOINT RightForeArm
								{
									OFFSET -18.448900 0.000000 0.000000
									CHANNELS 3 Xrotation Yrotation Zrotation
									JOINT RightHand
									{
										OFFSET -29.527802 0.000000 0.000000
										CHANNELS 3 Xrotation Yrotation Zrotation
										JOINT RightHandThumb1
										{
											OFFSET -10.739754 -2.369614 9.225399
											CHANNELS 3 Xrotation Yrotation Zrotation
											JOINT RightHandThumb2
											{
												OFFSET -4.926170 -2.844131 2.844125
												CHANNELS 3 Xrotation Yrotation Zrotation
												JOINT RightHandThumb3
												{
													OFFSET -4.614891 -2.664413 2.664409
													CHANNELS 3 Xrotation Yrotation Zrotation
													JOINT RightHandThumb4
													{
														OFFSET -4.432465 -2.559082 2.559083
														CHANNELS 3 Xrotation Yrotation Zrotation
														End Site
														{
															OFFSET 0.000000 0.000000 0.000000
														}
													}
												}
											}
										}
										JOINT RightHandIndex1
										{
											OFFSET -26.467674 0.187653 6.405298
											CHANNELS 3 Xrotation Yrotation Zrotation
											JOINT RightHandIndex2
											{
												OFFSET -8.792900 0.000000 0.000000
												CHANNELS 3 Xrotation Yrotation Zrotation
												JOINT RightHandIndex3
												{
													OFFSET -10.075203 0.000000 0.000000
													CHANNELS 3 Xrotation Yrotation Zrotation
													End Site
													{
														OFFSET 0.000000 0.000000 0.000000
													}
												}
											}
										}
										JOINT RightHandMiddle1
										{
											OFFSET -25.764404 0.000000 0.000000
											CHANNELS 3 Xrotation Yrotation Zrotation
											JOINT RightHandMiddle2
											{
												OFFSET -9.393974 0.000000 0.000000
												CHANNELS 3 Xrotation Yrotation Zrotation
												JOINT RightHandMiddle3
												{
													OFFSET -10.771950 0.000000 0.000000
													CHANNELS 3 Xrotation Yrotation Zrotation
													End Site
													{
														OFFSET 0.000000 0.000000 0.000000
													}
												}
											}
										}
										JOINT RightHandRing1
										{
											OFFSET -24.660927 0.144547 -6.225808
											CHANNELS 3 Xrotation Yrotation Zrotation
											JOINT RightHandRing2
											{
												OFFSET -9.393799 0.000000 0.000000
												CHANNELS 3 Xrotation Yrotation Zrotation
												JOINT RightHandRing3
												{
													OFFSET -9.928497 0.000000 0.000000
													CHANNELS 3 Xrotation Yrotation Zrotation
													End Site
													{
														OFFSET 0.000000 0.000000 0.000000
													}
												}
											}
										}
										JOINT RightHandPinky1
										{
											OFFSET -23.655350 0.125290 -12.815412
											CHANNELS 3 Xrotation Yrotation Zrotation
											JOINT RightHandPinky2
											{
												OFFSET -8.425102 0.000000 0.000000
												CHANNELS 3 Xrotation Yrotation Zrotation
												JOINT RightHandPinky3
												{
													OFFSET -8.147003 0.000000 0.000000
													CHANNELS 3 Xrotation Yrotation Zrotation
													End Site
													{
														OFFSET 0.000000 0.000000 0.000000
													}
												}
											}
										}
									}
								}
							}
						}
					}
				}
			}
		}
	}
	JOINT LeftUpLeg
	{
		OFFSET 11.394100 -6.187798 -0.413800
		CHANNELS 3 Xrotation Yrotation Zrotation
		JOINT LeftLeg
		{
			OFFSET 0.430247 -32.302673 3.732800
			CHANNELS 3 Xrotation Yrotation Zrotation
			JOINT LeftFoot
			{
				OFFSET -0.430247 -48.264931 -6.423300
				CHANNELS 3 Xrotation Yrotation Zrotation
				JOINT LeftToeBase
				{
					OFFSET 4.230900 -16.068199 23.438400
					CHANNELS 3 Xrotation Yrotation Zrotation
					JOINT LeftToe_End
					{
						OFFSET 4.510700 0.695400 19.974600
						CHANNELS 3 Xrotation Yrotation Zrotation
						End Site
						{
							OFFSET 0.000000 0.000000 0.000000
						}
					}
				}
			}
		}
	}
	JOINT RightUpLeg
	{
		OFFSET -11.333700 -6.187798 -0.413800
		CHANNELS 3 Xrotation Yrotation Zrotation
		JOINT RightLeg
		{
			OFFSET -0.430392 -32.302628 3.733000
			CHANNELS 3 Xrotation Yrotation Zrotation
			JOINT RightFoot
			{
				OFFSET 0.430392 -48.264973 -6.423500
				CHANNELS 3 Xrotation Yrotation Zrotation
				JOINT RightToeBase
				{
					OFFSET -4.230900 -16.068199 23.438400
					CHANNELS 3 Xrotation Yrotation Zrotation
					JOINT RightToe_End
					{
						OFFSET -4.510700 0.695400 19.974600
						CHANNELS 3 Xrotation Yrotation Zrotation
						End Site
						{
							OFFSET 0.000000 0.000000 0.000000
						}
					}
				}
			}
		}
	}
}
MOTION
Frames: 4
Frame Time: 0.016667
0.000550 41.823303 2.509483 72.664777 -1.763185 -1.111707 0.751984 -0.168347 0.333749 1.989890 -0.361036 0.703952 0.000000 0.000000 0.000000 1.989557 -0.369635 0.705793 -9.204231 -0.704416 3.164577 0.129149 2.292098 -4.360970 0.000001 -0.000000 -0.000000 1.107181 -1.022676 0.366517 0.000000 0.000000 0.000000 -53.198134 -52.390194 -60.733776 0.000003 -9.465324 0.000004 10.586348 -19.105163 86.700427 -1.335217 3.247040 11.085639 10.126215 -4.458098 7.651889 1.077481 -7.608467 23.794137 -0.000000 -0.000000 0.000001 -4.827142 -13.400615 -17.576713 0.100494 1.081554 -10.616096 0.000001 0.000001 -0.000002 -3.573215 -14.167604 -13.089254 0.077338 0.949776 -9.309778 -0.000000 0.000001 -0.000002 0.216158 -14.772459 -0.362646 0.436537 2.220929 -22.237339 0.000000 -0.000000 0.000000 -11.565746 -10.889320 18.851083 1.477788 3.890861 -41.581966 -0.000001 0.000001 0.000000 1.721910 3.722436 14.170257 0.000000 0.000000 0.000000 -57.852966 62.510424 58.216352 -0.000001 10.622210 0.000001 22.462829 6.417978 -82.516731 -0.201456 3.035653 -7.196451 8.074866 6.487042 -14.042688 5.826173 15.094079 -37.811476 0.000000 -0.000000 0.000001 -3.768173 8.510246 18.931741 0.000001 -0.000000 0.000000 0.000001 0.000000 0.000001 -0.238727 9.461327 1.884915 0.696241 -2.451511 31.705431 -0.000001 0.000000 0.000000 -0.642238 6.921379 4.616459 0.435034 -1.967186 24.937690 -0.000000 0.000001 -0.000001 -8.414060 -1.159939 -7.808912 0.946333 -2.816006 37.143668 0.000000 0.000002 0.000000 7.235787 11.584546 1.556103 0.177884 8.904674 2.387621 -40.459210 4.949065 -9.231387 -27.645845 0.926575 -11.619031 0.000002 -0.000001 0.000000 0.143884 -7.667859 -2.593862 11.191179 -0.989348 -1.639859 -35.677319 -4.959747 10.180902 -40.262654 -1.575021 8.278298 -0.000000 0.000001 -0.000000 
-0.014277 41.865715 2.489769 72.691832 -1.769655 -1.114261 0.763444 -0.165853 0.328987 2.014333 -0.356035 0.696149 0.000000 0.000000 0.000000 2.017245 -0.364457 0.698349 -9.222169 -0.707647 3.170100 0.081688 2.286394 -4.356596 -0.000001 -0.000000 -0.000000 1.106195 -1.019217 0.444195 0.000000 0.000000 0.000000 -53.325790 -52.446021 -60.786163 -0.000004 -9.373379 -0.000015 10.495907 -19.160188 86.594170 -1.335183 3.246624 11.085990 10.147850 -4.457474 7.634730 1.074254 -7.612194 23.792337 0.000001 0.000001 0.000002 -4.837817 -13.407083 -17.604548 0.100306 1.080573 -10.606299 -0.000002 -0.000001 -0.000000 -3.580321 -14.174223 -13.107839 0.077274 0.949394 -9.306206 0.000000 0.000000 0.000000 0.214326 -14.770902 -0.368762 0.436223 2.220170 -22.229296 -0.000000 0.000001 -0.000003 -11.556532 -10.896241 18.883829 1.482249 3.895879 -41.647700 -0.000002 -0.000001 0.000001 1.692443 3.818574 14.166781 0.000000 0.000000 0.000000 -57.419078 62.383041 57.737672 0.000008 11.015430 -0.000006 22.411406 6.229443 -82.455519 -0.201456 3.035642 -7.196449 8.074862 6.487018 -14.042691 5.825588 15.094259 -37.811306 -0.000000 -0.000001 -0.000003 -3.768111 8.510269 18.931754 -0.000000 -0.000001 0.000005 0.000000 -0.000000 0.000002 -0.238725 9.461313 1.884915 0.696246 -2.451505 31.705427 -0.000001 -0.000000 -0.000002 -0.642236 6.921375 4.616455 0.435035 -1.967188 24.937705 0.000000 -0.000001 0.000000 -8.414059 -1.159941 -7.808915 0.946318 -2.816006 37.143668 -0.000001 0.000001 0.000001 7.209021 11.574906 1.554479 0.115982 8.966241 2.396007 -40.464732 4.940046 -9.212001 -27.638138 0.915521 -11.542972 0.000000 0.000001 0.000000 0.096319 -7.657943 -2.571710 11.178850 -1.033962 -1.633784 -35.687356 -4.949813 10.152712 -40.181429 -1.574833 8.317817 -0.000000 -0.000000 0.000000 
-0.031712 41.914295 2.468750 72.721270 -1.768632 -1.113990 0.778679 -0.164209 0.319361 2.046987 -0.353058 0.686805 0.000000 0.000000 0.000000 2.059573 -0.360988 0.690020 -9.236193 -0.710650 3.176451 0.030643 2.283026 -4.346892 0.000002 -0.000000 -0.000000 1.109436 -1.047179 0.617681 0.000000 0.000000 0.000000 -53.300235 -52.427258 -60.726140 -0.000016 -9.495817 0.000001 10.330556 -19.116407 86.488431 -1.335057 3.245443 11.087062 10.172722 -4.455054 7.614902 1.067679 -7.620467 23.794473 -0.000000 -0.000000 -0.000000 -4.849315 -13.415398 -17.633317 0.101668 1.087823 -10.678348 -0.000001 0.000000 -0.000002 -3.576269 -14.185635 -13.088185 0.077295 0.949514 -9.307372 -0.000001 -0.000001 0.000001 0.213944 -14.771001 -0.370084 0.436388 2.220574 -22.233874 -0.000001 0.000000 -0.000002 -11.537936 -10.909934 18.948258 1.491650 3.906403 -41.785858 -0.000002 -0.000001 0.000001 1.608453 4.068151 14.154886 0.000000 0.000000 0.000000 -56.074753 61.951633 56.389202 0.000006 12.166835 -0.000009 22.338129 5.692538 -82.256610 -0.201456 3.035667 -7.196447 8.074869 6.487032 -14.042701 5.823906 15.094686 -37.810906 -0.000000 0.000000 -0.000002 -3.767917 8.510351 18.931765 0.000001 -0.000001 0.000004 0.000001 0.000000 0.000000 -0.238725 9.461332 1.884911 0.696247 -2.451501 31.705431 -0.000000 -0.000000 0.000001 -0.642234 6.921375 4.616446 0.435035 -1.967185 24.937707 0.000000 0.000000 -0.000001 -8.414063 -1.159920 -7.808908 0.946325 -2.816013 37.143675 -0.000002 -0.000001 0.000002 7.216470 11.557104 1.540338 -0.016484 9.028531 2.415548 -40.440946 4.925304 -9.189710 -27.671301 0.896776 -11.414929 -0.000000 0.000001 -0.000000 0.040499 -7.640481 -2.549574 11.169808 -1.084323 -1.630833 -35.693001 -4.939711 10.126040 -40.112082 -1.574276 8.347215 -0.000000 -0.000000 0.000000 
-0.052062 41.968327 2.446037 72.753782 -1.761132 -1.106119 0.796571 -0.163736 0.304376 2.085600 -0.352767 0.674648 0.000000 0.000000 0.000000 2.114178 -0.359899 0.679518 -9.245060 -0.712870 3.181722 -0.016070 2.281406 -4.334584 -0.000000 -0.000000 -0.000000 1.118092 -1.112104 0.871086 0.000000 0.000000 0.000000 -53.079678 -52.340361 -60.509213 0.000004 -9.849029 0.000011 10.082023 -18.967717 86.379463 -1.334853 3.243503 11.088828 10.184136 -4.450644 7.605701 1.083477 -7.594394 23.758202 0.000000 0.000000 0.000000 -4.864714 -13.431226 -17.667939 0.102157 1.090443 -10.704354 0.000002 0.000001 -0.000002 -3.587276 -14.183195 -13.124478 0.077380 0.950039 -9.312547 0.000001 0.000001 -0.000000 0.201509 -14.788811 -0.413988 0.436858 2.221723 -22.245899 0.000003 -0.000000 -0.000001 -11.535570 -10.898845 18.936816 1.498030 3.913510 -41.879534 -0.000002 0.000000 0.000001 1.474304 4.460578 14.127447 0.000000 0.000000 0.000000 -54.128054 61.266510 54.462634 0.000004 13.832713 0.000016 22.245088 4.915912 -81.969619 -0.201457 3.035648 -7.196446 8.074870 6.487031 -14.042688 5.821107 15.095430 -37.810233 0.000000 -0.000001 0.000001 -3.767596 8.510452 18.931801 -0.000001 -0.000001 0.000003 0.000000 0.000000 0.000001 -0.238723 9.461320 1.884905 0.696235 -2.451487 31.705444 -0.000000 -0.000000 -0.000000 -0.642232 6.921367 4.616427 0.435036 -1.967178 24.937724 0.000000 0.000001 0.000001 -8.414066 -1.159933 -7.808915 0.946326 -2.816008 37.143665 0.000001 -0.000000 -0.000000 7.258570 11.528365 1.509788 -0.219677 9.087230 2.445010 -40.387455 4.905999 -9.167821 -27.734362 0.872612 -11.249503 0.000000 0.000001 0.000000 -0.029233 -7.616668 -2.533003 11.170695 -1.135413 -1.632160 -35.697731 -4.930155 10.101919 -40.056372 -1.573636 8.363535 -0.000000 -0.000001 0.000000 
